HIERARCHY
ROOT Hips
{
	OFFSET -3.958830 18.904000 13.208200
	CHANNELS 6 Xposition Yposition Zposition Zrotation Yrotation Xrotation 
	JOINT LHipJoint
	{
		OFFSET 0.000000 0.000000 0.000000
		CHANNELS 3 Zrotation Yrotation Xrotation
		JOINT LeftUpLeg
		{
			OFFSET 1.800000 -1.400000 0.085000
			CHANNELS 3 Zrotation Yrotation Xrotation
			JOINT LeftLeg
			{
				OFFSET 2.215000 -6.000000 0.000000
				CHANNELS 3 Zrotation Yrotation Xrotation
				JOINT LeftFoot
				{
					OFFSET 2.500000 -6.900000 0.000000
					CHANNELS 3 Zrotation Yrotation Xrotation
					JOINT LeftToeBase
					{
						OFFSET 0.200000 -0.500000 1.950000
						CHANNELS 3 Zrotation Yrotation Xrotation
						End Site
						{
							OFFSET 0.000000 0.000000 0.000000
						}
					}
				}
			}
		}
	}
	JOINT RHipJoint
	{
		OFFSET 0.000000 0.000000 0.000000
		CHANNELS 3 Zrotation Yrotation Xrotation
		JOINT RightUpLeg
		{
			OFFSET -1.800000 -1.400000 0.085000
			CHANNELS 3 Zrotation Yrotation Xrotation
			JOINT RightLeg
			{
				OFFSET -2.215000 -6.000000 0.000000
				CHANNELS 3 Zrotation Yrotation Xrotation
				JOINT RightFoot
				{
					OFFSET -2.500000 -6.900000 0.000000
					CHANNELS 3 Zrotation Yrotation Xrotation
					JOINT RightToeBase
					{
						OFFSET -0.200000 -0.500000 1.950000
						CHANNELS 3 Zrotation Yrotation Xrotation
						End Site
						{
							OFFSET 0.000000 0.000000 0.000000
						}
					}
				}
			}
		}
	}
	JOINT LowerBack
	{
		OFFSET 0.000000 0.000000 0.000000
		CHANNELS 3 Zrotation Yrotation Xrotation
		JOINT Spine
		{
			OFFSET -0.087000 1.940000 -0.288900
			CHANNELS 3 Zrotation Yrotation Xrotation
			JOINT Spine1
			{
				OFFSET 0.000000 1.950000 0.060000
				CHANNELS 3 Zrotation Yrotation Xrotation
				JOINT Neck
				{
					OFFSET 0.000000 0.000000 0.000000
					CHANNELS 3 Zrotation Yrotation Xrotation
					JOINT Neck1
					{
						OFFSET 0.000000 1.600000 0.340000
						CHANNELS 3 Zrotation Yrotation Xrotation
						JOINT Head
						{
							OFFSET 0.000000 1.667000 -0.240000
							CHANNELS 3 Zrotation Yrotation Xrotation
							End Site
							{
								OFFSET 0.000000 0.000000 0.000000
							}
						}
					}
				}
				JOINT LeftShoulder
				{
					OFFSET 0.000000 0.000000 0.000000
					CHANNELS 3 Zrotation Yrotation Xrotation
					JOINT LeftArm
					{
						OFFSET 2.700000 1.550000 -0.730000
						CHANNELS 3 Zrotation Yrotation Xrotation
						JOINT LeftForeArm
						{
							OFFSET 5.450000 0.000000 0.000000
							CHANNELS 3 Zrotation Yrotation Xrotation
							JOINT LeftHand
							{
								OFFSET 3.450000 0.000000 0.000000
								CHANNELS 3 Zrotation Yrotation Xrotation
								JOINT LeftHandIndex1
								{
									OFFSET 0.750000 0.000000 0.000000
									CHANNELS 3 Zrotation Yrotation Xrotation
									End Site
									{
										OFFSET 0.000000 0.000000 0.000000
									}
								}
							}
						}
					}
				}
				JOINT RightShoulder
				{
					OFFSET 0.000000 0.000000 0.000000
					CHANNELS 3 Zrotation Yrotation Xrotation
					JOINT RightArm
					{
						OFFSET -2.700000 1.550000 -0.730000
						CHANNELS 3 Zrotation Yrotation Xrotation
						JOINT RightForeArm
						{
							OFFSET -5.450000 0.000000 0.000000
							CHANNELS 3 Zrotation Yrotation Xrotation
							JOINT RightHand
							{
								OFFSET -3.450000 0.000000 0.000000
								CHANNELS 3 Zrotation Yrotation Xrotation
								JOINT RightHandIndex1
								{
									OFFSET -0.750000 0.000000 0.000000
									CHANNELS 3 Zrotation Yrotation Xrotation
									End Site
									{
										OFFSET 0.000000 0.000000 0.000000
									}
								}
							}
						}
					}
				}
			}
		}
	}
}
MOTION
Frames: 12
Frame Time: 0.016667
-1.607430 16.871950 -2.782030 -17.503016 -53.673248 4.418951 -15.284559 13.468938 3.572248 -8.958092 -1.443468 -28.672551 -1.560187 6.903728 29.140920 -0.312709 4.401828 2.877254 0.632400 0.321830 0.544790 18.048064 -10.492090 3.501681 4.724501 2.645774 11.305207 7.396483 -8.199279 30.881531 -1.073685 -6.667614 2.287366 0.172850 0.001930 0.131140 -2.434127 -2.295972 -8.158148 10.754945 7.401013 32.265010 -13.146545 14.914528 -6.742896 14.255963 -10.416978 -8.520494 -16.956536 15.546093 38.634233 -2.258530 10.607700 -8.071180 -19.622067 15.698259 -8.354362 -46.116432 9.410404 -6.651645 -13.786562 -2.468648 -1.697552 -3.644378 2.732368 0.534400 -0.042370 0.086470 0.228640 -11.415548 4.600423 6.441449 -11.637442 16.527765 -0.153209 -9.931176 9.652665 -0.502181 2.316043 -1.619989 -0.117250 0.081710 -0.237770 -0.225100 
-1.595820 16.841700 -2.770650 -20.802767 -56.236875 7.682375 -15.300717 13.702846 3.542786 -7.401964 -1.056178 -29.771612 -1.721680 6.994648 28.845084 -0.346773 4.433518 2.875673 0.593140 0.271380 0.524390 18.007199 -10.373327 3.534804 4.974074 2.423107 11.500442 6.923984 -7.915186 30.137207 -1.028336 -6.543786 2.338012 0.159720 0.034460 0.106850 -2.279996 -2.751186 -8.202322 11.734082 7.220696 32.690366 -13.369176 15.223300 -10.514032 14.742301 -11.241604 -7.924255 -18.036115 16.803651 38.945776 -2.825040 11.789630 -6.584700 -20.047348 18.765977 -9.566833 -44.980349 11.622455 -6.568954 -12.930139 -1.898334 -1.742803 -3.664452 2.653477 0.535920 -0.022730 0.055530 0.225120 -12.310280 3.328960 5.928035 -10.643192 19.221699 -0.310123 -12.289307 12.181812 -0.897815 2.293997 -1.665875 -0.158680 0.104620 -0.218590 -0.235360 
-1.601930 16.809990 -2.768140 -22.283826 -59.001105 11.143297 -15.641650 14.133023 3.748989 -7.855734 -1.848547 -32.544260 -0.665191 6.664474 28.991549 -0.271533 4.403994 2.894635 0.477920 0.132680 0.412500 17.712415 -9.781401 3.312662 4.457665 2.475003 10.218810 7.062946 -7.704666 29.317074 -0.892230 -6.296473 2.441206 0.054310 0.111700 0.128940 -1.252674 -4.565097 -8.363289 6.302939 8.256010 32.509419 -9.976182 16.088181 -19.230236 15.520789 -11.597938 -7.317203 -18.096982 18.487666 39.344858 -2.366340 13.848200 -0.752570 -17.638244 25.865628 -11.389170 -43.308454 16.255652 -6.847509 -12.682405 -2.833233 -1.686817 -3.692784 2.678659 0.471710 0.036580 -0.011110 0.229680 -14.964939 0.451585 6.123649 -4.050372 22.398306 0.914226 -16.517436 18.192745 -1.749105 2.307828 -1.785879 -0.151050 0.036440 -0.173250 -0.201690 
-1.581780 16.791030 -2.781510 -23.152521 -60.214885 12.913935 -15.679178 14.104602 3.983002 -8.553298 -3.005790 -33.977905 0.833267 5.889507 29.046269 -0.338499 4.277970 2.935928 0.437700 0.053620 0.384610 17.676446 -9.744378 3.222860 3.911195 2.424673 8.999217 6.971554 -7.693471 29.458322 -0.833547 -6.199877 2.442202 0.030200 0.142910 0.131480 -1.355033 -4.867320 -8.365811 5.869561 6.745226 32.592419 -9.554195 14.375895 -21.277693 14.994063 -12.413639 -7.521022 -19.942388 21.065836 38.125808 -0.609890 15.149930 1.274800 -13.999906 28.481750 -10.775120 -44.058079 17.681046 -7.403051 -13.103803 -7.514903 -1.310146 -3.696317 2.763668 0.491180 0.042120 -0.051160 0.205740 -16.892194 -0.982938 5.546711 0.452019 25.549116 1.908391 -19.189428 19.368905 -2.385026 2.326258 -1.820263 -0.188050 0.019010 -0.124440 -0.221500 
-1.520770 16.826280 -2.788710 -25.435743 -61.299277 13.202095 -15.576087 14.264488 3.865070 -7.153053 -2.686689 -31.625065 1.033578 5.453813 27.413256 -0.493884 4.059109 2.970415 0.507400 0.071280 0.482030 17.729928 -9.837341 3.312618 3.961419 2.859187 9.325690 6.892903 -7.902703 31.525542 -0.935971 -6.385858 2.302241 0.062860 0.044310 0.131750 -1.754329 -4.915390 -8.287591 8.997394 4.779249 35.302330 -11.971315 12.631747 -22.034435 14.750839 -13.334285 -7.375206 -22.303920 23.346519 39.897342 0.383480 15.167770 -0.993770 -16.158214 26.704434 -10.514688 -41.516530 17.023378 -6.801238 -9.336538 -5.891142 -1.542441 -3.645319 2.749226 0.615060 -0.052780 0.003360 0.155470 -14.736070 -0.254777 5.057404 0.607503 26.352401 1.637612 -18.837403 20.272115 -2.367940 2.308475 -1.750668 -0.208270 0.013820 -0.107550 -0.291440 
-1.406770 16.865900 -2.826740 -27.025129 -60.963912 11.730476 -15.388743 14.212319 3.658994 -5.102069 -2.338682 -28.336255 0.067719 5.342030 25.701784 -0.611904 4.012243 2.993279 0.532030 0.076990 0.510370 17.891438 -10.044265 3.420587 4.386037 3.370853 9.466158 7.226688 -8.510216 34.726336 -1.040445 -6.880370 2.089542 0.112860 0.049400 0.164120 -2.401121 -4.367739 -8.102983 13.802821 1.513911 37.629243 -15.004036 9.898432 -16.177482 15.020907 -14.153558 -7.908576 -25.468527 24.510628 38.068588 -1.264700 14.366740 -1.931570 -20.211419 20.215571 -9.132060 -40.267235 12.295471 -5.226897 -7.162930 -2.737089 -1.592184 -3.736288 2.775640 0.620120 -0.029810 -0.011580 0.132770 -11.873222 2.902654 4.405337 -3.655242 25.132799 -0.129184 -18.329771 19.325114 -2.385633 2.262459 -1.724208 -0.228230 0.022390 -0.073270 -0.314820 
-1.278810 16.927860 -2.856010 -27.038504 -60.788566 8.794425 -15.145066 13.993621 3.448196 -3.575120 -1.991628 -23.732638 -1.258599 5.195960 22.878341 -0.572482 3.619336 3.105337 0.744270 0.389900 0.614010 18.095548 -10.500848 3.487619 3.785862 3.789172 9.539819 7.219418 -8.931695 37.350970 -1.225539 -7.254844 1.955835 0.241660 -0.095430 0.195290 -3.167132 -3.163810 -7.830801 17.883026 -0.966950 39.125414 -17.323563 7.575934 -9.910878 14.126725 -14.222693 -7.849649 -26.980330 24.977390 38.314946 -2.085090 13.217740 -6.273280 -21.245672 15.400988 -7.466316 -38.740438 6.642438 -4.055578 -6.277503 -3.313794 -1.307470 -3.609939 2.933685 0.585600 -0.103090 0.119540 0.191330 -9.615051 4.029214 3.319151 -4.410565 24.406238 -1.312946 -19.449416 22.591573 -3.104634 2.248294 -1.788387 -0.075840 -0.021800 -0.216280 -0.264220 
-1.177170 16.964640 -2.877820 -26.255679 -60.610085 7.676872 -14.997972 13.723022 3.441110 -3.302129 -2.258220 -22.131964 -1.747213 4.890379 20.801296 -0.537099 3.218358 3.245624 0.902460 0.593850 0.732650 18.221692 -10.881444 3.458105 3.318120 4.197467 7.245781 6.312214 -8.807660 39.851539 -1.312252 -7.326988 1.910992 0.320810 -0.214740 0.170260 -3.713758 -2.156532 -7.684054 19.468354 -2.278563 38.609905 -18.217329 5.608219 -7.526025 12.425818 -13.502434 -7.719949 -25.783935 25.581865 39.667624 -0.605150 13.668930 -8.190550 -18.365354 13.794864 -5.748114 -37.891590 3.989773 -3.922258 -7.167899 -7.239789 -1.005861 -3.423032 3.083870 0.593470 -0.197320 0.215590 0.242630 -8.945253 3.204294 2.542423 4.297969 24.932929 -1.405889 -24.288539 31.028288 -5.725067 2.213285 -1.852194 -0.001380 -0.052370 -0.363100 -0.246390 
-1.053570 17.011640 -2.910930 -23.001732 -61.384440 3.963372 -14.991726 13.665315 3.527229 -4.150341 -2.484405 -20.353369 -1.882652 4.628786 18.930607 -0.486904 2.971789 3.331901 0.930290 0.680810 0.765490 18.204747 -11.127020 3.258292 1.324443 4.153010 5.465999 4.451854 -8.186730 40.653646 -1.289491 -7.193281 1.961846 0.324350 -0.257330 0.220290 -3.822330 -1.845626 -7.585810 17.050853 -2.317442 39.038627 -16.678730 4.523971 -2.654262 11.211081 -12.120318 -8.086855 -23.421437 25.581501 40.412689 -3.420080 15.823680 -10.439220 -17.619859 9.569500 -3.284532 -36.718324 2.799142 -4.676530 -6.733253 -14.006456 -0.615171 -3.363539 3.207809 0.559340 -0.178650 0.294370 0.253740 -6.697507 4.471485 1.742028 10.095503 23.777194 -3.787920 -29.420503 40.355106 -9.509083 2.079023 -1.760938 0.074510 -0.077900 -0.405590 -0.222670 
-0.914600 17.042100 -2.969210 -21.433495 -62.185695 1.773007 -15.037258 13.878615 3.586151 -3.994633 -2.575744 -20.587727 -1.834537 4.873290 20.194645 -0.411579 3.138796 3.298930 0.922730 0.666120 0.778800 18.140147 -11.122501 3.079568 0.665516 3.597170 3.720840 1.747709 -6.988872 40.470526 -1.210868 -6.826916 2.091849 0.294180 -0.250290 0.231580 -3.581595 -2.317824 -7.535295 14.382178 -2.062043 42.043393 -14.344173 4.276813 -2.906230 10.134556 -11.634602 -8.013258 -23.043604 25.881583 40.300012 -4.882200 16.793460 -10.890880 -15.302629 9.972630 -3.193504 -37.101799 0.225358 -4.680994 -4.783576 -19.597898 -0.404562 -3.342502 3.239476 0.561290 -0.178240 0.318620 0.279900 -6.601623 3.734579 1.640216 20.259160 23.813119 -4.831144 -32.636895 49.018423 -13.304881 1.959308 -1.649097 0.082440 -0.070720 -0.434450 -0.209090 
-0.743250 17.070080 -3.057160 -19.624796 -62.364342 -0.807710 -15.090559 14.096626 3.683954 -3.602148 -2.946897 -22.205091 -2.010289 5.661369 24.470388 -0.346662 3.758735 3.104568 0.836100 0.567130 0.742570 18.085477 -11.027836 2.877836 0.110788 2.636343 2.527688 -0.745360 -5.849985 38.588836 -1.071187 -6.304526 2.294352 0.248220 -0.210190 0.185880 -3.214935 -2.989547 -7.528359 11.056259 -1.475929 45.658524 -11.593694 4.491043 -2.544839 9.351675 -11.123599 -8.016313 -22.267642 24.772053 38.909486 -7.271330 17.024440 -12.764310 -14.010189 9.822019 -3.247009 -37.505051 -1.958509 -5.388491 -0.343198 -28.101255 -0.854145 -3.316118 3.198771 0.595370 -0.172660 0.298600 0.274480 -6.071604 3.661070 2.108826 27.379772 21.672364 -7.684418 -39.385392 59.487217 -20.444104 1.778118 -1.360409 0.008530 0.002990 -0.403010 -0.221770 
-0.586540 17.075820 -3.155980 -16.712960 -62.350489 -4.232692 -15.115281 14.049870 3.910095 -3.210482 -3.938118 -24.571920 -2.872958 7.176672 31.388620 -0.094922 4.839593 2.678494 0.828170 0.592130 0.760100 18.078091 -11.030291 2.628271 -0.979776 2.277511 0.963889 -3.314818 -4.851338 38.628527 -1.021408 -6.047259 2.395615 0.218770 -0.272930 0.184290 -3.014538 -3.154613 -7.571908 7.782901 -0.224034 48.008680 -9.356278 4.840725 -0.627839 8.217038 -9.759836 -7.955471 -19.496484 22.786021 39.473856 -10.431680 17.671680 -16.000180 -13.901093 7.943733 -2.802846 -36.217084 -4.019856 -6.630914 7.475139 -37.321971 -2.987851 -3.232942 3.248790 0.579760 -0.197060 0.347790 0.268800 -3.808962 4.195083 2.570246 34.514144 19.907907 -10.545602 -39.772591 66.809736 -24.598054 1.720421 -1.164200 0.053050 -0.021250 -0.432020 -0.213350 
